<svg width="103" height="70" viewBox="0 0 103 70" fill="none" xmlns="http://www.w3.org/2000/svg">
<g opacity="0.8">
<path opacity="0.25" d="M10.1021 10C10.1021 4.47715 14.5792 0 20.102 0H33.4088C34.8641 0 36.3018 0.317632 37.6217 0.93072L44.3782 4.06928C45.6981 4.68237 47.1358 5 48.5911 5H82.4097C87.9325 5 92.4097 9.47715 92.4097 15V60C92.4097 65.5228 87.9325 70 82.4097 70H20.1021C14.5792 70 10.1021 65.5228 10.1021 60V10Z" fill="url(#paint0_linear)"/>
<path d="M92.0122 62.1663C90.9966 66.7431 86.9378 70 82.2497 70L61.1538 70L39.2307 70L20.0579 70C15.3698 70 11.311 66.7431 10.2954 62.1663L2.15972 25.5022C1.05124 20.5068 4.85278 15.7692 9.96975 15.7692L92.3378 15.7692C97.4548 15.7692 101.256 20.5068 100.148 25.5023L92.0122 62.1663Z" fill="url(#paint1_linear)"/>
</g>
<defs>
<linearGradient id="paint0_linear" x1="51.2152" y1="-6.94074e-06" x2="51.2152" y2="70" gradientUnits="userSpaceOnUse">
<stop stop-color="#0059D0"/>
<stop offset="1" stop-color="#61A4FF"/>
</linearGradient>
<linearGradient id="paint1_linear" x1="51.1978" y1="70" x2="51.1978" y2="15.7693" gradientUnits="userSpaceOnUse">
<stop stop-color="#0059D0"/>
<stop offset="1" stop-color="#61A4FF"/>
</linearGradient>
</defs>
</svg>
