<svg width="19" height="19" viewBox="0 0 19 19" fill="none" xmlns="http://www.w3.org/2000/svg">
<path d="M0 11.2651V7.77453L2.1375 7.41753C2.29581 6.82254 2.53331 6.26719 2.81044 5.7912L1.54375 4.04594L3.99794 1.54698L5.77919 2.7766C6.29375 2.49896 6.84794 2.26097 7.40206 2.10226L7.75831 0H11.2417L11.5979 2.14197C12.1917 2.30061 12.7063 2.53861 13.2208 2.81625L14.9625 1.58662L17.4562 4.04594L16.1896 5.7912C16.4666 6.3069 16.7041 6.86218 16.8625 7.45718L19 7.77453V11.2651L16.8625 11.6221C16.7042 12.2171 16.4667 12.7328 16.1896 13.2484L17.4562 15.0334L15.0021 17.4927L13.2208 16.2234C12.7063 16.501 12.1521 16.739 11.5583 16.8977L11.2021 19H7.71875L7.3625 16.858C6.80831 16.6994 6.25419 16.4614 5.73956 16.1838L3.95831 17.453L1.50419 14.9938L2.77081 13.2088C2.49375 12.6931 2.25625 12.1775 2.09794 11.5825L0 11.2651ZM9.5 13.1691C11.5187 13.1691 13.1417 11.5428 13.1417 9.51986C13.1417 7.49689 11.4792 5.87055 9.5 5.87055C7.52081 5.87055 5.85831 7.49689 5.85831 9.51986C5.85831 11.5428 7.48125 13.1691 9.5 13.1691Z" fill="#2F3441"/>
</svg>
