<svg width="102" height="102" viewBox="0 0 102 102" fill="none" xmlns="http://www.w3.org/2000/svg">
<path fill-rule="evenodd" clip-rule="evenodd" d="M66.4386 0C76.6785 0 81.7972 0 87.3095 1.7425C93.3275 3.93295 98.067 8.67255 100.257 14.6906C102 20.202 102 25.3224 102 35.5615V66.4386C102 76.6785 102 81.7972 100.257 87.3095C98.067 93.3275 93.3275 98.067 87.3095 100.257C81.7972 102 76.6785 102 66.4386 102H35.5615C25.3215 102 20.202 102 14.6906 100.257C8.67255 98.067 3.93295 93.3275 1.7425 87.3095C0 81.7972 0 76.6785 0 66.4386V35.5615C0 25.3224 0 20.202 1.7425 14.6906C3.93295 8.67255 8.67255 3.93295 14.6906 1.7425C20.202 0 25.3215 0 35.5615 0H66.4386Z" fill="url(#paint0_linear)"/>
<circle cx="50.1492" cy="52.6995" r="34" fill="url(#paint1_linear)"/>
<path d="M50.3156 27.2018C52.1436 27.2381 53.8541 28.7329 54.1134 30.52C54.137 30.6844 54.1743 30.7855 54.1743 31.0117C54.1743 31.5072 54.3584 31.7173 54.7478 31.9378C58.3431 33.9758 61.9284 36.0297 65.5112 38.0872C65.7574 38.229 65.9362 38.2348 66.1926 38.0908C68.6262 36.7156 71.5769 38.0335 72.1694 40.7546C72.2251 41.0078 72.2198 41.2742 72.2392 41.5055C72.1992 43.05 71.5225 44.2011 70.2165 44.9769C69.9755 45.1196 69.8918 45.265 69.8925 45.5371C69.9008 49.7506 69.9001 53.9643 69.8936 58.1769C69.8932 58.4301 69.9583 58.5827 70.1926 58.7164C71.7036 59.5814 72.4682 61.177 72.1968 62.8543C71.9366 64.4616 70.6397 65.7819 68.9598 66.098C67.9858 66.282 67.0424 66.1356 66.1888 65.6167C65.9286 65.4589 65.7453 65.4868 65.5014 65.6259C61.8452 67.7241 58.185 69.8167 54.5206 71.9013C54.2699 72.0442 54.1761 72.2011 54.1767 72.4909C54.1805 74.5181 52.6011 76.2822 50.6282 76.4788C48.5269 76.6889 46.669 75.3807 46.215 73.3606C46.1455 73.05 46.122 72.7253 46.1149 72.4074C46.1096 72.192 46.0494 72.0601 45.856 71.9492C42.141 69.8321 38.429 67.7099 34.7187 65.5846C34.5178 65.4687 34.3599 65.4678 34.1572 65.5893C31.7327 67.0351 28.6427 65.6491 28.1285 62.9482C27.8041 61.2419 28.5051 59.6466 30.0466 58.7479C30.2901 58.6055 30.4002 58.4621 30.3998 58.1672C30.3886 53.9533 30.3904 49.7402 30.3971 45.527C30.3973 45.2738 30.3309 45.124 30.097 44.9895C28.5495 44.0991 27.8215 42.5519 28.1187 40.8147C28.4139 39.089 29.7609 37.823 31.514 37.5756C32.4536 37.4433 33.3598 37.6129 34.1728 38.1272C34.3617 38.2469 34.5019 38.2432 34.6941 38.1334C38.3936 36.0125 42.0959 33.8976 45.8012 31.7875C46.0253 31.6599 46.1127 31.5134 46.1133 31.2519C46.1194 28.9313 47.9703 27.1548 50.3156 27.2018ZM49.2098 28.0785C47.7688 28.5132 46.9656 29.5214 46.8244 30.9887C46.7157 32.1208 47.2564 33.3786 48.561 34.0848C48.7614 34.1931 48.9011 34.2883 48.9003 34.5607C48.8976 35.3889 48.8956 36.2172 48.8943 37.0454L48.9425 43.3269C46.9618 43.6523 45.2159 44.7555 44.1091 46.3544C43.8257 46.4162 43.5492 46.4957 43.2808 46.5916C40.7867 45.18 38.3036 43.7486 35.8051 42.3437C35.4304 42.1333 35.2497 41.9076 35.3122 41.4801C35.3372 41.3097 35.284 41.1271 35.2559 40.9516C34.9999 39.3537 33.4222 38.0171 31.5177 38.327C29.6493 38.6316 28.463 40.3062 28.7714 42.0986C29.1646 44.3876 31.802 45.5463 33.7917 44.2941C34.0162 44.1529 34.1716 44.1419 34.4016 44.2747C34.8741 44.5477 35.5927 44.9403 36.5574 45.4526L40.9886 47.9897C39.7725 49.1313 39.0144 50.727 39.0144 52.5023C39.0144 53.8746 39.4672 55.139 40.2339 56.1695L35.0717 59.1201C34.7355 59.2943 34.4838 59.4285 34.3166 59.5227C34.2046 59.5857 33.987 59.5726 33.8732 59.5046C33.3378 59.1845 32.7676 58.9718 32.1437 58.9553C30.0678 58.9027 28.8053 60.5821 28.7344 62.0412C28.6522 63.7503 29.9577 65.5009 32.0691 65.4852C33.9207 65.4715 35.3298 64.0009 35.3115 62.1661C35.3086 61.8383 35.4059 61.6528 35.6962 61.4895C37.1225 60.6851 39.2516 59.4701 42.0835 57.8445C43.0922 58.454 44.284 58.8054 45.5565 58.8054C45.5694 58.8054 45.5823 58.8053 45.5952 58.8053C45.5983 58.8053 45.6016 58.8053 45.605 58.8054H48.8978C48.8985 59.0384 48.8988 59.1762 48.8987 59.2187C48.8913 62.5421 48.892 65.8645 48.898 69.1876C48.8982 69.4222 48.8237 69.5557 48.6079 69.658C47.4774 70.1978 46.6242 71.5906 46.857 73.0801C47.127 74.8107 48.9219 76.1174 50.6541 75.7819C52.1801 75.4868 53.1826 74.4548 53.3973 72.8673C53.5425 71.7906 53.0197 70.3693 51.6218 69.6576C51.4321 69.5616 51.3274 69.4566 51.3281 69.2259C51.335 65.998 51.3357 62.7702 51.3281 59.543V58.8054H55.4012C55.5272 58.8054 55.6523 58.7954 55.7754 58.7758C56.7035 58.6819 57.5639 58.3684 58.3004 57.8898L64.0831 61.2077C64.2736 61.3352 64.4203 61.4279 64.5232 61.4857C64.8106 61.6469 64.9215 61.825 64.913 62.1584C64.8617 64.0898 66.562 65.6676 68.5444 65.4583C70.4906 65.2533 71.8696 63.3979 71.4181 61.5218C70.8769 59.2733 68.4181 58.2588 66.4319 59.474C66.2226 59.6018 66.0713 59.6367 65.8479 59.5072C64.1672 58.5346 62.4826 57.5687 60.791 56.6149C60.7322 56.5818 60.4735 56.4191 60.0149 56.1268C60.5032 55.3215 60.7832 54.383 60.7832 53.3805C60.7832 51.3908 59.6842 49.6638 58.0534 48.7199L58.0744 48.7079C58.1027 48.6868 58.1352 48.666 58.1719 48.6451C58.8872 48.2393 59.6022 47.833 60.3169 47.4262L65.0668 44.7112C65.3294 44.5606 65.5919 44.4098 65.8544 44.259C66.0603 44.1412 66.2 44.1392 66.4022 44.2736C67.1228 44.7526 67.9307 44.9042 68.7783 44.7572C70.4281 44.4708 71.6239 42.992 71.4768 41.2465C71.3168 39.3528 69.4415 37.9373 67.5685 38.348C65.9249 38.7085 64.8923 39.9808 64.9113 41.6534C64.9139 41.9383 64.834 42.1008 64.5774 42.2462C63.9152 42.6215 63.2534 42.9975 62.592 43.374L56.5381 46.8481C55.4713 44.997 53.5674 43.6652 51.333 43.3171C51.3337 40.5032 51.3392 37.6892 51.3238 34.8754C51.3216 34.4532 51.4211 34.2086 51.8206 33.9813C53.2527 33.1664 53.797 31.412 53.1417 29.916C52.4809 28.4069 50.7929 27.6008 49.2098 28.0785ZM50.1249 71.6154C50.6501 71.619 51.0492 72.0234 51.0467 72.5498C51.0434 73.0742 50.6384 73.4693 50.106 73.4659C49.5781 73.4632 49.1745 73.0558 49.1802 72.531C49.1862 72.0091 49.5977 71.6113 50.1249 71.6154ZM68.2397 61.252C68.7498 61.2546 69.1845 61.672 69.1896 62.1661C69.1951 62.6417 68.7307 63.1017 68.2472 63.1026C67.7296 63.1026 67.3233 62.694 67.3231 62.1724C67.3231 61.6386 67.7099 61.2509 68.2397 61.252ZM32.0659 61.252C32.5954 61.2524 32.9805 61.6421 32.9785 62.1762C32.9765 62.6973 32.5664 63.1067 32.0511 63.1025C31.5642 63.0979 31.1142 62.648 31.1119 62.1623C31.1095 61.677 31.5549 61.252 32.0659 61.252ZM50.1943 45.4108C52.9322 45.4108 55.156 47.5265 55.1937 50.1502L55.2023 50.1502C57.0307 50.1502 58.5129 51.5749 58.5129 53.3323C58.5129 55.0091 57.1635 56.383 55.4516 56.5056C55.44 56.5112 55.4269 56.5144 55.4131 56.5144H45.6456L45.6396 56.5142C45.6255 56.5144 45.6114 56.5144 45.5972 56.5144C43.2464 56.5144 41.3406 54.6957 41.3406 52.4521C41.3406 50.2177 43.231 48.4046 45.5687 48.3899C46.3169 46.6417 48.1061 45.4108 50.1943 45.4108ZM32.9783 41.5078C32.9866 42.0574 32.6151 42.4449 32.0764 42.4498C31.5441 42.4545 31.1281 42.0617 31.1124 41.5408C31.0966 41.0332 31.5175 40.607 32.0422 40.5994C32.59 40.5911 32.9706 40.9608 32.9783 41.5078ZM68.2582 40.5994C68.7836 40.6068 69.2018 41.0289 69.1894 41.5391C69.1769 42.056 68.7578 42.4537 68.229 42.4498C67.6907 42.446 67.3178 42.058 67.3231 41.5086C67.3284 40.9631 67.7103 40.5922 68.2582 40.5994ZM50.1146 30.3099C50.6411 30.3095 51.0447 30.7081 51.0467 31.2277C51.048 31.726 50.6096 32.1666 50.1163 32.1605C49.6149 32.1556 49.1786 31.7203 49.1802 31.2275C49.1822 30.7098 49.5889 30.3104 50.1146 30.3099Z" fill="url(#paint2_linear)"/>
<path d="M90.9489 17.8492C90.9489 22.0742 87.5239 25.4992 83.2989 25.4992C79.0739 25.4992 75.6489 22.0742 75.6489 17.8492C75.6489 13.6242 79.0739 10.1992 83.2989 10.1992C87.5239 10.1992 90.9489 13.6242 90.9489 17.8492Z" fill="#4CD964"/>
<defs>
<linearGradient id="paint0_linear" x1="51" y1="0" x2="51" y2="102" gradientUnits="userSpaceOnUse">
<stop stop-color="white"/>
<stop offset="1" stop-color="#DADADA"/>
</linearGradient>
<linearGradient id="paint1_linear" x1="50.1492" y1="18.6995" x2="50.1492" y2="86.6995" gradientUnits="userSpaceOnUse">
<stop stop-color="#007AFF"/>
<stop offset="1"/>
</linearGradient>
<linearGradient id="paint2_linear" x1="50.1508" y1="27.2009" x2="50.1508" y2="76.5009" gradientUnits="userSpaceOnUse">
<stop stop-color="white"/>
<stop offset="1" stop-color="#DADADA"/>
</linearGradient>
</defs>
</svg>
