<svg width="56" height="39" viewBox="0 0 56 39" fill="none" xmlns="http://www.w3.org/2000/svg">
<g opacity="0.9">
<mask id="mask0" mask-type="alpha" maskUnits="userSpaceOnUse" x="0" y="0" width="56" height="39">
<rect width="56" height="38.0674" rx="6" fill="url(#paint0_radial)"/>
<rect width="56" height="38.0674" rx="6" fill="white" fill-opacity="0.23"/>
</mask>
<g mask="url(#mask0)">
<rect width="56" height="38.0674" rx="6" fill="url(#paint1_radial)"/>
<rect width="56" height="38.0674" rx="6" fill="white" fill-opacity="0.33"/>
<g opacity="0.21">
<mask id="path-3-outside-1" maskUnits="userSpaceOnUse" x="0.223633" y="16.104" width="56" height="23" fill="black">
<rect fill="white" x="0.223633" y="16.104" width="56" height="23"/>
<path fill-rule="evenodd" clip-rule="evenodd" d="M53.9633 37.0949C53.134 37.706 52.1092 38.0672 51.0001 38.0672H5.00005C3.97278 38.0672 3.01786 37.7574 2.22363 37.2261C2.85053 35.9929 3.70504 34.8833 4.78127 33.9854L22.6117 19.1094C25.7884 16.4591 30.0606 16.4336 33.2687 19.0457L51.2759 33.7071C52.4151 34.6347 53.3136 35.7978 53.9633 37.0949Z"/>
</mask>
<path fill-rule="evenodd" clip-rule="evenodd" d="M53.9633 37.0949C53.134 37.706 52.1092 38.0672 51.0001 38.0672H5.00005C3.97278 38.0672 3.01786 37.7574 2.22363 37.2261C2.85053 35.9929 3.70504 34.8833 4.78127 33.9854L22.6117 19.1094C25.7884 16.4591 30.0606 16.4336 33.2687 19.0457L51.2759 33.7071C52.4151 34.6347 53.3136 35.7978 53.9633 37.0949Z" fill="#C7CBD8"/>
<path d="M53.9633 37.0949L54.5565 37.8999L55.2346 37.4002L54.8574 36.6471L53.9633 37.0949ZM2.22363 37.2261L1.33221 36.7729L0.930094 37.5639L1.66764 38.0573L2.22363 37.2261ZM4.78127 33.9854L5.4219 34.7532L4.78127 33.9854ZM22.6117 19.1094L21.9711 18.3416L22.6117 19.1094ZM33.2687 19.0457L32.6374 19.8211L33.2687 19.0457ZM51.2759 33.7071L51.9073 32.9317V32.9317L51.2759 33.7071ZM53.37 36.2899C52.7068 36.7786 51.8886 37.0672 51.0001 37.0672V39.0672C52.3298 39.0672 53.5612 38.6334 54.5565 37.8999L53.37 36.2899ZM51.0001 37.0672H5.00005V39.0672H51.0001V37.0672ZM5.00005 37.0672C4.17682 37.0672 3.41445 36.8195 2.77962 36.3949L1.66764 38.0573C2.62128 38.6952 3.76874 39.0672 5.00005 39.0672V37.0672ZM3.11506 37.6793C3.68544 36.5573 4.45771 35.5576 5.4219 34.7532L4.14065 33.2175C2.95237 34.2089 2.01562 35.4286 1.33221 36.7729L3.11506 37.6793ZM5.4219 34.7532L23.2523 19.8773L21.9711 18.3416L4.14065 33.2175L5.4219 34.7532ZM23.2523 19.8773C26.0614 17.5336 29.8004 17.5113 32.6374 19.8211L33.9001 18.2702C30.3208 15.3559 25.5153 15.3846 21.9711 18.3416L23.2523 19.8773ZM32.6374 19.8211L50.6445 34.4826L51.9073 32.9317L33.9001 18.2702L32.6374 19.8211ZM50.6445 34.4826C51.6651 35.3136 52.4775 36.3616 53.0691 37.5427L54.8574 36.6471C54.1496 35.234 53.1652 33.9558 51.9073 32.9317L50.6445 34.4826Z" fill="#003154" fill-opacity="0.32" mask="url(#path-3-outside-1)"/>
</g>
<path fill-rule="evenodd" clip-rule="evenodd" d="M54.3426 1.28138C53.6925 2.90122 52.6809 4.35945 51.3206 5.48063L33.4014 20.2496C30.209 22.8808 25.9367 22.8808 22.7442 20.2496L4.82508 5.48062C3.43838 4.3377 2.41405 2.84454 1.76562 1.18698C2.63754 0.446628 3.76667 0 5.00011 0H51.0001C52.2851 0 53.4569 0.484761 54.3426 1.28138Z" fill="#E4E6EC"/>
</g>
</g>
<defs>
<radialGradient id="paint0_radial" cx="0" cy="0" r="1" gradientUnits="userSpaceOnUse" gradientTransform="translate(28 4.24719) rotate(90) scale(33.8202 72.3668)">
<stop stop-color="#ABAFBB"/>
<stop offset="1" stop-color="#D3D6DF"/>
</radialGradient>
<radialGradient id="paint1_radial" cx="0" cy="0" r="1" gradientUnits="userSpaceOnUse" gradientTransform="translate(28 4.24719) rotate(90) scale(33.8202 72.3668)">
<stop stop-color="#ABAFBB"/>
<stop offset="1" stop-color="#D3D6DF"/>
</radialGradient>
</defs>
</svg>
