<?xml version="1.0" encoding="utf-8"?>
<!-- Generator: Adobe Illustrator 16.0.4, SVG Export Plug-In . SVG Version: 6.00 Build 0)  -->
<!DOCTYPE svg PUBLIC "-//W3C//DTD SVG 1.1//EN" "http://www.w3.org/Graphics/SVG/1.1/DTD/svg11.dtd">
<svg version="1.1" id="Layer_1" xmlns="http://www.w3.org/2000/svg" xmlns:xlink="http://www.w3.org/1999/xlink" x="0px" y="0px"
	 width="56px" height="56.693px" viewBox="0 -7.347 56 56.693" enable-background="new 0 -7.347 56 56.693" xml:space="preserve">
<g>
	<defs>
		<rect id="SVGID_1_" x="5.312" y="-8.833" width="45.375" height="61.667"/>
	</defs>
	<clipPath id="SVGID_2_">
		<use xlink:href="#SVGID_1_"  overflow="visible"/>
	</clipPath>
	<g clip-path="url(#SVGID_2_)">
		
			<linearGradient id="SVGID_3_" gradientUnits="userSpaceOnUse" x1="3.0552" y1="35.7969" x2="3.0552" y2="14.3185" gradientTransform="matrix(1 0 0 -1 24.9448 33.3594)">
			<stop  offset="0" style="stop-color:#EBEBEB"/>
			<stop  offset="1" style="stop-color:#BCC6CB"/>
		</linearGradient>
		<path fill="url(#SVGID_3_)" d="M37.78,17.878v-6.619c0-5.401-4.379-9.781-9.78-9.781s-9.781,4.38-9.781,9.781v6.619H37.78z
			 M10.03,19.043v-7.784C10.03,1.335,18.077-6.709,28-6.709c9.924,0,17.969,8.045,17.969,17.969v7.784H10.03z"/>
		
			<linearGradient id="SVGID_4_" gradientUnits="userSpaceOnUse" x1="3.0552" y1="-14.9419" x2="3.0552" y2="18.5825" gradientTransform="matrix(1 0 0 -1 24.9448 33.3594)">
			<stop  offset="0" style="stop-color:#0059D0"/>
			<stop  offset="1" style="stop-color:#61A4FF"/>
		</linearGradient>
		<path fill="url(#SVGID_4_)" d="M49.547,17.5H6.453v20.494c0,5.692,4.616,10.308,10.306,10.308h22.482
			c5.689,0,10.306-4.615,10.306-10.308V17.5z"/>
		<path fill="none" d="M6.838,37.994V17.887h42.325v20.107c0,5.478-4.442,9.922-9.922,9.922H16.759
			C11.28,47.916,6.838,43.472,6.838,37.994z"/>
		<linearGradient id="SVGID_5_" gradientUnits="userSpaceOnUse" x1="27.9995" y1="23.6699" x2="27.9995" y2="40.374">
			<stop  offset="0" style="stop-color:#003C8D"/>
			<stop  offset="1" style="stop-color:#00193A"/>
		</linearGradient>
		<path fill="url(#SVGID_5_)" d="M33.011,28.682c0-2.769-2.243-5.012-5.011-5.012c-2.767,0-5.011,2.243-5.011,5.012
			c0,1.508,0.68,2.844,1.735,3.766v4.65c0,1.808,1.466,3.276,3.275,3.276c1.811,0,3.277-1.469,3.277-3.276v-4.65
			C32.329,31.525,33.011,30.189,33.011,28.682z"/>
	</g>
</g>
</svg>
