<svg width="56" height="42" viewBox="0 0 56 42" fill="none" xmlns="http://www.w3.org/2000/svg">
<g opacity="0.9">
<path d="M1.83782e-05 5.94701C1.86653e-05 2.66263 2.66254 0.000105963 5.94692 0.00010625L50.0531 0.000117736C53.3375 0.000118023 56 2.66264 56 5.94702L56 35.6815C56 38.9659 53.3375 41.6284 50.0531 41.6284L5.94691 41.6284C2.66253 41.6284 7.86216e-06 38.9659 8.14929e-06 35.6815L1.83782e-05 5.94701Z" fill="url(#paint0_linear)"/>
<path fill-rule="evenodd" clip-rule="evenodd" d="M26.0099 27.4478C27.6668 27.4478 29.0099 26.1047 29.0099 24.4478L29.0099 12.1497C29.0099 10.4928 27.6668 9.14966 26.0099 9.14966H9.13721C7.48035 9.14966 6.13721 10.4928 6.13721 12.1497V24.4478C6.13721 26.1047 7.48036 27.4478 9.13721 27.4478H10.7124V29.9373C10.7124 31.5941 12.0556 32.9373 13.7124 32.9373H21.436C23.0929 32.9373 24.436 31.5941 24.436 29.9373V27.4478H26.0099Z" fill="url(#paint1_linear)"/>
<path d="M37.4496 17.7904C39.6539 19.3874 39.6539 22.672 37.4496 24.269L30.7482 29.1238C30.0871 29.6028 29.1616 29.1304 29.1616 28.3139L29.1616 13.7454C29.1616 12.929 30.0871 12.4566 30.7482 12.9356L37.4496 17.7904Z" fill="white" fill-opacity="0.19"/>
<path d="M41.5668 17.7904C43.7712 19.3874 43.7712 22.672 41.5668 24.269L34.8655 29.1238C34.2043 29.6028 33.2788 29.1304 33.2788 28.3139L33.2788 13.7454C33.2788 12.929 34.2043 12.4566 34.8655 12.9356L41.5668 17.7904Z" fill="#95BCF0"/>
<path d="M49.037 20.2199C49.5881 20.6191 49.5881 21.4403 49.037 21.8395L38.9822 29.1238C38.321 29.6028 37.3955 29.1304 37.3955 28.3139L37.3955 13.7454C37.3955 12.929 38.321 12.4566 38.9822 12.9356L49.037 20.2199Z" fill="white"/>
<path d="M10.2549 11.4363H24.8934C24.8934 12.4469 24.0742 13.2661 23.0636 13.2661H12.0847C11.0741 13.2661 10.2549 12.4469 10.2549 11.4363Z" fill="#3C8FFF"/>
</g>
<defs>
<linearGradient id="paint0_linear" x1="28.0241" y1="41.6284" x2="28.0241" y2="0.000132654" gradientUnits="userSpaceOnUse">
<stop stop-color="#0059D0"/>
<stop offset="1" stop-color="#61A4FF"/>
</linearGradient>
<linearGradient id="paint1_linear" x1="18.8339" y1="11.991" x2="18.8339" y2="32.8409" gradientUnits="userSpaceOnUse">
<stop stop-color="#003C8D"/>
<stop offset="1" stop-color="#00193A"/>
</linearGradient>
</defs>
</svg>
