<svg width="56" height="57" viewBox="0 0 56 57" fill="none" xmlns="http://www.w3.org/2000/svg">
<g opacity="0.9">
<path d="M14.6706 3.49575C14.4918 3.59197 14.3145 3.69081 14.1388 3.79228L14.0863 3.82257C0.60731 11.6431 -4.0044 28.9039 3.79186 42.4075C4.58486 43.781 5.47377 45.0618 6.45035 46.2458C6.54 46.3545 6.70631 46.3487 6.79413 46.2385C6.96187 46.0262 7.04896 45.7591 7.03687 45.4898C7.00767 44.7547 6.73633 43.4669 5.60505 41.5075C-1.59756 29.0322 2.69176 13.0243 15.167 5.82167C27.6423 -1.38094 43.6503 2.90838 50.8529 15.3837C52.0834 17.515 54.2647 16.8807 53.0844 14.7212C52.9879 14.5444 52.8892 14.3683 52.7884 14.1928L52.7566 14.1377C45.0512 0.791525 28.109 -3.89223 14.6706 3.49575Z" fill="url(#paint0_linear)"/>
<path d="M38.4076 9.13548C38.7646 9.3176 39.1743 9.29436 39.497 9.10809C39.6806 9.00208 39.8354 8.84623 39.9386 8.64328C40.2269 8.08861 40.0067 7.40433 39.4479 7.11491C32.1774 3.36638 23.6239 3.56225 16.5653 7.63758C9.88171 11.4963 5.46132 18.4027 4.74504 26.1154C4.68621 26.7404 5.14551 27.2936 5.77054 27.3525C6.39557 27.4113 6.94879 26.952 7.00762 26.327C7.65653 19.3457 11.6549 13.0956 17.7011 9.60487C24.0856 5.91876 31.8274 5.7404 38.4076 9.13548Z" fill="url(#paint1_linear)"/>
<path d="M35.0973 9.91365C30.7664 8.40952 26.0433 8.48541 21.7956 10.1299C21.2094 10.3564 20.9204 11.0129 21.1454 11.5965C21.3719 12.1827 22.0299 12.4743 22.6161 12.2478C30.3663 9.24909 39.3485 12.4186 43.5086 19.6241C48.1712 27.7 50.1556 35.2136 50.642 41.7896C50.7277 42.9491 52.1906 43.4002 52.7688 42.3915C52.8843 42.19 52.9355 41.9607 52.9189 41.7291C52.4252 34.8284 50.3595 26.9469 45.4759 18.4883C43.1618 14.4803 39.4767 11.4352 35.0973 9.91365Z" fill="url(#paint2_linear)"/>
<path d="M14.9729 50.9422C15.6711 50.0495 18.9073 45.1628 13.999 36.6614C10.2493 30.1667 11.1477 22.0971 16.2351 16.5823C16.6606 16.1198 16.6311 15.4024 16.1686 14.9769C15.7102 14.5526 14.9887 14.5809 14.5658 15.0419C8.80056 21.2908 7.78223 30.4369 12.0317 37.7973C16.2252 45.0605 13.6109 48.9831 13.2034 49.5191C12.9579 49.7967 12.7246 50.0808 12.5039 50.3715C12.1222 50.8745 12.261 51.5859 12.7898 51.931C13.3251 52.2802 14.0298 52.1038 14.4239 51.6006C14.5839 51.3963 14.7514 51.196 14.9262 51.0007L14.9308 50.9951L14.9398 50.9845C14.9512 50.9712 14.9622 50.9585 14.9729 50.9422Z" fill="url(#paint3_linear)"/>
<path d="M9.80211 39.0846C12.9188 44.4829 11.6781 47.3921 11.2231 48.1549C11.19 48.2125 11.1485 48.2679 11.1066 48.3165C10.9793 48.4641 10.8549 48.6134 10.7333 48.7642C10.2952 49.3079 9.49213 49.4226 8.98176 48.946C8.56439 48.5562 8.50648 47.9144 8.86113 47.4668C8.95945 47.3427 9.05967 47.2196 9.1617 47.0971C9.25726 46.9824 9.34194 46.8589 9.39047 46.7177C9.63219 46.0145 9.9836 43.9422 7.83481 40.2204C6.88527 38.5758 6.13588 36.8295 5.60414 35.0241C5.42827 34.4226 5.77034 33.7915 6.3744 33.6141C6.97585 33.4382 7.60702 33.7803 7.78441 34.3843C8.26504 36.0164 8.94343 37.5973 9.80211 39.0846Z" fill="url(#paint4_linear)"/>
<path d="M19.5768 36.9453C19.3225 36.3716 18.6515 36.112 18.0793 36.3689C17.5042 36.6205 17.2461 37.2941 17.5003 37.8678C21.4915 46.8707 17.1114 52.0961 16.9454 52.2933C16.8554 52.3925 16.7677 52.4929 16.6823 52.5944C16.2175 53.1472 16.4499 53.963 17.114 54.2468C17.6302 54.4673 18.219 54.2743 18.593 53.8557C18.6098 53.8369 18.6268 53.8181 18.6439 53.7994C18.8696 53.5361 24.1456 47.2514 19.5768 36.9453Z" fill="url(#paint5_linear)"/>
<path d="M26.2318 46.1519C26.2689 45.5254 25.7916 44.9896 25.1652 44.9525C24.5387 44.9155 24.0003 45.3943 23.9632 46.0207C23.6276 51.7334 20.7015 55.0491 20.5845 55.1796C20.4836 55.2872 20.5389 55.4616 20.6809 55.5015C21.1479 55.6324 21.6206 55.7516 22.0969 55.8587C22.5398 55.9584 22.9994 55.7813 23.2491 55.4022C24.344 53.7404 25.9692 50.5788 26.2318 46.1519Z" fill="url(#paint6_linear)"/>
<path d="M30.5812 39.6677C30.2292 37.8949 29.6933 36.0884 28.982 34.2991C28.7503 33.716 28.09 33.4326 27.5069 33.6644C26.9263 33.8946 26.6404 34.5564 26.8722 35.1395C27.5295 36.799 28.0287 38.4694 28.3523 40.1082C29.6467 46.6637 27.9911 51.7186 26.4002 54.7778C26.003 55.5416 26.4728 56.5011 27.3333 56.5288C27.7524 56.5424 28.1425 56.3178 28.3377 55.9468C30.1323 52.5357 32.0136 46.9064 30.5812 39.6677Z" fill="url(#paint7_linear)"/>
<path d="M30.5242 27.1204C30.2107 26.5774 29.5156 26.3912 28.9727 26.7046C28.4297 27.0181 28.2434 27.7132 28.5569 28.2562C33.2789 36.4349 34.5457 44.4506 32.3305 52.0808C32.0733 52.9658 31.7816 53.7946 31.4716 54.563C31.1314 55.4063 31.7752 56.3465 32.6734 56.2045C33.0598 56.1433 33.3884 55.8842 33.5355 55.5218C33.8733 54.69 34.1933 53.7897 34.476 52.8287C36.1589 47.1356 36.8363 38.0533 30.5242 27.1204Z" fill="url(#paint8_linear)"/>
<path d="M38.7245 40.0091C38.1016 40.075 37.6495 40.6368 37.7154 41.2598C38.1687 45.4433 37.8128 49.5519 36.6558 53.4724C36.4089 54.3142 37.1718 55.1237 37.9952 54.821C38.089 54.7865 38.1827 54.7515 38.2763 54.7159C38.5463 54.6134 38.7519 54.3906 38.8343 54.1138C40.0771 49.9058 40.4599 45.4985 39.9737 41.0157C39.9078 40.3927 39.346 39.9406 38.7245 40.0091Z" fill="url(#paint9_linear)"/>
<path d="M28.2903 19.9497C28.914 19.8729 29.3563 19.3063 29.2795 18.6826C29.2001 18.0604 28.6334 17.6181 28.0124 17.6934C26.652 17.8633 25.3578 18.2992 24.167 18.9867C19.2854 21.8051 17.607 28.0692 20.4253 32.9508C21.8156 35.3587 22.8125 37.77 23.3887 40.1128C23.5406 40.7211 24.1546 41.0941 24.7644 40.9448C24.8714 40.9181 24.9707 40.8782 25.0625 40.8252C25.4875 40.5798 25.7189 40.072 25.5964 39.5691C24.9671 37.0191 23.8904 34.4092 22.3926 31.8149C20.1997 28.0168 21.5046 23.1469 25.3028 20.954C26.2287 20.4194 27.2356 20.0795 28.2903 19.9497Z" fill="url(#paint10_linear)"/>
<path d="M37.9384 36.0914C38.0292 36.067 38.1124 36.0294 38.1911 35.984C38.6344 35.728 38.8631 35.1973 38.7143 34.6852C37.7612 31.3988 36.329 28.0882 34.4587 24.8487C32.8927 22.1365 29.4131 21.2041 26.7009 22.77C23.9886 24.3359 23.0563 27.8156 24.6222 30.5278C24.9357 31.0708 25.6308 31.257 26.1737 30.9436C26.7167 30.6301 26.903 29.935 26.5895 29.392C25.649 27.7631 26.2078 25.6778 27.8367 24.7373C29.463 23.7984 31.5509 24.3556 32.4914 25.9845C34.2708 29.0666 35.629 32.2066 36.5321 35.3155C36.7069 35.9211 37.3369 36.2673 37.9384 36.0914Z" fill="url(#paint11_linear)"/>
<path d="M34.9515 19.3356C34.43 18.9897 33.7247 19.1311 33.3761 19.6541C33.0302 20.1756 33.1716 20.8808 33.6931 21.2268C34.7149 21.9064 35.5458 22.7942 36.1637 23.8644C42.7234 35.2262 42.8946 45.0819 41.4649 52.0419C41.3522 52.5904 41.922 53.0343 42.407 52.7543C43.3214 52.2264 43.9324 51.3043 44.0823 50.2591C45.1119 43.0783 44.3667 33.5292 38.131 22.7286C37.3374 21.3541 36.2661 20.2134 34.9515 19.3356Z" fill="url(#paint12_linear)"/>
<path d="M46.6976 36.1547C46.0843 36.2675 45.6748 36.8606 45.7865 37.4782C46.3878 40.7451 46.6003 43.9959 46.4243 47.2068C46.3654 48.2811 47.6032 48.9372 48.3599 48.1723C48.5565 47.9735 48.6708 47.7116 48.6869 47.4325C48.8841 44.0123 48.6624 40.5484 48.0211 37.0658C47.9068 36.4499 47.3178 36.0415 46.6976 36.1547Z" fill="url(#paint13_linear)"/>
<path d="M44.4292 28.6092C44.4742 28.5902 44.5177 28.5686 44.5596 28.5444C45.0475 28.2627 45.2608 27.6569 45.0402 27.1233C44.1307 24.9483 43.0424 22.7543 41.8036 20.6086C37.7328 13.5578 28.6841 11.1332 21.6333 15.204C15.5085 18.7402 12.7441 26.1524 15.0636 32.8293C15.2703 33.4235 15.916 33.7362 16.5075 33.531C17.1017 33.3244 17.4144 32.6787 17.2093 32.0872C15.247 26.4351 17.5859 20.1638 22.7691 17.1713C28.734 13.7275 36.3909 15.777 39.8363 21.7444C41.0266 23.8062 42.0718 25.9133 42.9432 27.9982C43.1844 28.5794 43.8521 28.8515 44.4292 28.6092Z" fill="url(#paint14_linear)"/>
<path d="M47.5964 15.9522C47.0534 16.2657 46.8672 16.9608 47.1806 17.5038C50.4793 23.2172 52.5434 28.6838 53.7264 33.7862C54.0198 35.0515 55.7167 35.181 55.9758 33.9082C56.0104 33.7382 56.0077 33.563 55.9689 33.3939C54.7436 28.0551 52.5956 22.3395 49.1479 16.368C48.8345 15.825 48.1394 15.6387 47.5964 15.9522Z" fill="url(#paint15_linear)"/>
</g>
<defs>
<linearGradient id="paint0_linear" x1="27.9759" y1="-6.27854e-06" x2="27.9759" y2="56.5294" gradientUnits="userSpaceOnUse">
<stop stop-color="#0059D0"/>
<stop offset="1" stop-color="#61A4FF"/>
</linearGradient>
<linearGradient id="paint1_linear" x1="27.9759" y1="-6.27854e-06" x2="27.9759" y2="56.5294" gradientUnits="userSpaceOnUse">
<stop stop-color="#0059D0"/>
<stop offset="1" stop-color="#61A4FF"/>
</linearGradient>
<linearGradient id="paint2_linear" x1="27.9759" y1="-6.27854e-06" x2="27.9759" y2="56.5294" gradientUnits="userSpaceOnUse">
<stop stop-color="#0059D0"/>
<stop offset="1" stop-color="#61A4FF"/>
</linearGradient>
<linearGradient id="paint3_linear" x1="27.9759" y1="-6.27854e-06" x2="27.9759" y2="56.5294" gradientUnits="userSpaceOnUse">
<stop stop-color="#0059D0"/>
<stop offset="1" stop-color="#61A4FF"/>
</linearGradient>
<linearGradient id="paint4_linear" x1="27.9759" y1="-6.27854e-06" x2="27.9759" y2="56.5294" gradientUnits="userSpaceOnUse">
<stop stop-color="#0059D0"/>
<stop offset="1" stop-color="#61A4FF"/>
</linearGradient>
<linearGradient id="paint5_linear" x1="27.9759" y1="-6.27854e-06" x2="27.9759" y2="56.5294" gradientUnits="userSpaceOnUse">
<stop stop-color="#0059D0"/>
<stop offset="1" stop-color="#61A4FF"/>
</linearGradient>
<linearGradient id="paint6_linear" x1="27.9759" y1="-6.27854e-06" x2="27.9759" y2="56.5294" gradientUnits="userSpaceOnUse">
<stop stop-color="#0059D0"/>
<stop offset="1" stop-color="#61A4FF"/>
</linearGradient>
<linearGradient id="paint7_linear" x1="27.9759" y1="-6.27854e-06" x2="27.9759" y2="56.5294" gradientUnits="userSpaceOnUse">
<stop stop-color="#0059D0"/>
<stop offset="1" stop-color="#61A4FF"/>
</linearGradient>
<linearGradient id="paint8_linear" x1="27.9759" y1="-6.27854e-06" x2="27.9759" y2="56.5294" gradientUnits="userSpaceOnUse">
<stop stop-color="#0059D0"/>
<stop offset="1" stop-color="#61A4FF"/>
</linearGradient>
<linearGradient id="paint9_linear" x1="27.9759" y1="-6.27854e-06" x2="27.9759" y2="56.5294" gradientUnits="userSpaceOnUse">
<stop stop-color="#0059D0"/>
<stop offset="1" stop-color="#61A4FF"/>
</linearGradient>
<linearGradient id="paint10_linear" x1="27.9759" y1="-6.27854e-06" x2="27.9759" y2="56.5294" gradientUnits="userSpaceOnUse">
<stop stop-color="#0059D0"/>
<stop offset="1" stop-color="#61A4FF"/>
</linearGradient>
<linearGradient id="paint11_linear" x1="27.9759" y1="-6.27854e-06" x2="27.9759" y2="56.5294" gradientUnits="userSpaceOnUse">
<stop stop-color="#0059D0"/>
<stop offset="1" stop-color="#61A4FF"/>
</linearGradient>
<linearGradient id="paint12_linear" x1="27.9759" y1="-6.27854e-06" x2="27.9759" y2="56.5294" gradientUnits="userSpaceOnUse">
<stop stop-color="#0059D0"/>
<stop offset="1" stop-color="#61A4FF"/>
</linearGradient>
<linearGradient id="paint13_linear" x1="27.9759" y1="-6.27854e-06" x2="27.9759" y2="56.5294" gradientUnits="userSpaceOnUse">
<stop stop-color="#0059D0"/>
<stop offset="1" stop-color="#61A4FF"/>
</linearGradient>
<linearGradient id="paint14_linear" x1="27.9759" y1="-6.27854e-06" x2="27.9759" y2="56.5294" gradientUnits="userSpaceOnUse">
<stop stop-color="#0059D0"/>
<stop offset="1" stop-color="#61A4FF"/>
</linearGradient>
<linearGradient id="paint15_linear" x1="27.9759" y1="-6.27854e-06" x2="27.9759" y2="56.5294" gradientUnits="userSpaceOnUse">
<stop stop-color="#0059D0"/>
<stop offset="1" stop-color="#61A4FF"/>
</linearGradient>
</defs>
</svg>
