<?xml version="1.0" standalone="no"?>
<!DOCTYPE svg PUBLIC "-//W3C//DTD SVG 20010904//EN"
 "http://www.w3.org/TR/2001/REC-SVG-20010904/DTD/svg10.dtd">
<svg version="1.0" xmlns="http://www.w3.org/2000/svg"
 width="512.000000pt" height="512.000000pt" viewBox="0 0 512.000000 512.000000"
 preserveAspectRatio="xMidYMid meet">
<metadata>
Created by potrace 1.16, written by Peter Selinger 2001-2019
</metadata>
<g transform="translate(0.000000,512.000000) scale(0.100000,-0.100000)"
fill="#000000" stroke="none">
<path d="M2391 4939 c-447 -94 -794 -426 -919 -879 l-27 -95 -3 -702 -3 -703
-43 0 c-136 0 -299 -104 -378 -240 -60 -103 -58 -72 -58 -1042 0 -874 0 -890
21 -951 49 -148 159 -257 306 -306 62 -21 73 -21 1353 -21 1280 0 1291 0 1353
21 79 26 143 67 199 127 56 61 81 103 107 179 21 61 21 77 21 953 0 876 0 892
-21 953 -49 148 -159 257 -306 306 -61 21 -77 21 -1061 21 l-999 0 -7 53 c-9
82 -7 1101 4 1208 17 172 78 305 199 431 79 83 162 138 272 180 82 32 88 33
239 32 146 0 160 -1 230 -28 157 -59 301 -176 382 -311 50 -83 88 -203 99
-310 5 -49 9 -230 9 -401 0 -336 3 -356 56 -437 14 -21 46 -51 71 -68 39 -24
58 -29 107 -29 108 0 185 57 226 168 19 49 20 79 20 446 0 309 -3 412 -15 482
-84 479 -462 866 -942 963 -137 28 -358 28 -492 0z m337 -3205 c148 -61 190
-257 79 -372 -18 -19 -44 -40 -59 -48 l-28 -15 0 -205 c0 -155 -3 -213 -14
-239 -16 -37 -48 -52 -92 -41 -46 12 -54 53 -54 280 l0 205 -27 15 c-16 8 -42
29 -60 48 -139 144 -36 387 165 388 29 0 69 -7 90 -16z"/>
</g>
</svg>
