<svg width="63" height="25" viewBox="0 0 63 25" fill="none" xmlns="http://www.w3.org/2000/svg">
<path fill-rule="evenodd" clip-rule="evenodd" d="M21.1716 9.0142C21.0505 9.08656 21.0086 9.16027 21.0089 9.29828C21.013 11.4349 21.0127 13.5717 21.0095 15.7079C21.0092 15.8363 21.0419 15.9137 21.1596 15.9815C21.9182 16.4201 22.3021 17.2292 22.1659 18.0798C22.0352 18.8949 21.3841 19.5644 20.5406 19.7247C20.0515 19.818 19.5778 19.7437 19.1493 19.4806C19.0186 19.4006 18.9266 19.4147 18.8041 19.4853C16.9683 20.5493 15.1305 21.6104 13.2906 22.6675C13.1647 22.74 13.1176 22.8196 13.1179 22.9665C13.1198 23.9945 12.3268 24.8891 11.3362 24.9888C10.2811 25.0953 9.34828 24.432 9.12034 23.4075C9.08541 23.25 9.07365 23.0854 9.07007 22.9242C9.06738 22.815 9.03715 22.7481 8.94008 22.6919C7.07474 21.6183 5.21096 20.5421 3.34797 19.4644C3.24709 19.4055 3.16783 19.4051 3.06606 19.4667C1.84873 20.1999 0.297206 19.4971 0.0390288 18.1274C-0.123871 17.2622 0.228127 16.4532 1.0021 15.9975C1.12436 15.9252 1.17966 15.8525 1.17944 15.703C1.17384 13.5661 1.17474 11.4297 1.1781 9.29313C1.17821 9.16475 1.14485 9.0888 1.0274 9.02059C0.250407 8.56904 -0.115138 7.78445 0.0341026 6.90353C0.182336 6.02844 0.858679 5.38646 1.7389 5.261C2.21069 5.1939 2.66569 5.27993 3.07389 5.54071C3.16872 5.60142 3.23914 5.59952 3.33565 5.54385C5.19316 4.46835 7.05212 3.39588 8.91254 2.32587C9.02506 2.26112 9.06895 2.18685 9.06928 2.05422C9.07231 0.877461 10.0017 -0.0233969 11.1793 0.000463141C12.0971 0.0188343 12.9559 0.776868 13.0861 1.6831C13.0896 1.70773 13.0937 1.72956 13.0978 1.75106L13.0978 1.75106L13.0978 1.75107L13.0978 1.75108L13.0978 1.75109C13.1074 1.80233 13.1167 1.85167 13.1167 1.93246C13.1167 2.18372 13.2092 2.29025 13.4047 2.40204C15.2099 3.43553 17.0101 4.47709 18.809 5.52043C18.9326 5.59235 19.0224 5.59526 19.1512 5.52223C20.3731 4.82491 21.8546 5.49321 22.1521 6.87306C22.1717 6.96291 22.1763 7.05604 22.1806 7.14405C22.1824 7.1818 22.1842 7.21861 22.1871 7.25382C22.1671 8.03706 21.8273 8.62079 21.1716 9.0142ZM8.82787 16.0087L8.80846 16.0087C8.17007 16.0087 7.57213 15.8307 7.06608 15.5218C5.64537 16.3456 4.57724 16.9613 3.86169 17.369C3.71603 17.4518 3.66722 17.5458 3.66868 17.7119C3.67786 18.6418 2.97095 19.387 2.04203 19.394C0.982787 19.4019 0.327828 18.5147 0.369029 17.6486C0.404632 16.9092 1.03798 16.058 2.07942 16.0847C2.39246 16.0931 2.67851 16.2009 2.9471 16.3631C3.0042 16.3976 3.11336 16.4042 3.16956 16.3722C3.29537 16.3006 3.4211 16.2289 3.54677 16.1571L3.54839 16.1682L6.13818 14.6729C5.75351 14.1507 5.52637 13.5099 5.52637 12.8145C5.52637 11.9147 5.90671 11.1061 6.51678 10.5275L4.29373 9.24175L4.28025 9.26512C3.92388 9.05896 3.56778 8.85233 3.21222 8.64482C3.09679 8.5775 3.01887 8.5831 2.90624 8.65468C1.90801 9.28927 0.584885 8.70207 0.387614 7.542C0.232887 6.63363 0.828059 5.78497 1.76538 5.63061C2.72083 5.47356 3.51238 6.15094 3.6408 6.96073C3.64415 6.98188 3.64822 7.00323 3.65229 7.02465C3.66536 7.09332 3.67857 7.16273 3.66901 7.22857C3.63766 7.44521 3.72835 7.55958 3.91633 7.66622C4.63715 8.07567 5.35541 8.48955 6.07364 8.90341L6.07406 8.90366C6.60463 9.20938 7.13519 9.5151 7.66674 9.81901C7.80139 9.77037 7.94014 9.73009 8.08231 9.6988C8.63757 8.88847 9.51347 8.32942 10.5071 8.1645V4.98114H10.483C10.4836 4.56141 10.4846 4.14167 10.486 3.72192C10.4864 3.58391 10.4163 3.53563 10.3158 3.48074C9.66127 3.12284 9.38999 2.48545 9.44452 1.91169C9.51539 1.1681 9.91832 0.657184 10.6412 0.436842C11.4355 0.194768 12.2823 0.603302 12.6138 1.36806C12.9426 2.1262 12.6695 3.0153 11.951 3.42831C11.7506 3.54347 11.7007 3.66748 11.7018 3.88143C11.7081 5.03922 11.7074 6.19708 11.7068 7.35495L11.7064 8.15955C12.8274 8.33592 13.7825 9.01088 14.3178 9.94896L17.3551 8.18876L17.3549 8.18838C17.6867 7.99754 18.0187 7.80702 18.3509 7.61682C18.4797 7.54312 18.5198 7.46078 18.5184 7.31639C18.5089 6.46874 19.027 5.82396 19.8515 5.64125C20.7912 5.43312 21.732 6.15049 21.8123 7.11016C21.886 7.99478 21.2862 8.74419 20.4585 8.88936C20.0332 8.96386 19.6279 8.88701 19.2664 8.64426C19.165 8.57616 19.0949 8.57716 18.9916 8.63687L18.5965 8.86606L16.2135 10.2419C15.855 10.4481 15.4963 10.654 15.1374 10.8597C15.119 10.8702 15.1027 10.8808 15.0885 10.8915L15.078 10.8976C15.8961 11.3759 16.4474 12.2511 16.4474 13.2595C16.4474 13.7675 16.307 14.2432 16.062 14.6513L16.3569 14.8218C16.3764 14.8489 16.4071 14.8735 16.4513 14.8986C17.3 15.382 18.1452 15.8715 18.9883 16.3644C19.1004 16.43 19.1763 16.4123 19.2813 16.3476C20.2778 15.7317 21.5113 16.2459 21.7828 17.3853C22.0093 18.3362 21.3175 19.2765 20.3411 19.3803C19.3466 19.4864 18.4936 18.6868 18.5193 17.708C18.5236 17.539 18.4679 17.4487 18.3237 17.3671L18.0916 17.235L18.103 17.2262L15.2019 15.5447C14.8324 15.7873 14.4007 15.9461 13.9351 15.9938C13.8733 16.0037 13.8106 16.0087 13.7474 16.0087H11.7298V16.2651C11.7127 16.2926 11.704 16.33 11.704 16.3826C11.7078 18.018 11.7074 19.6538 11.704 21.2897C11.7036 21.4066 11.7561 21.4598 11.8513 21.5084C12.5526 21.8691 12.8149 22.5894 12.742 23.1351C12.6343 23.9396 12.1314 24.4626 11.3658 24.6122C10.4968 24.7822 9.59633 24.1199 9.46086 23.2429C9.34409 22.488 9.77211 21.7822 10.3393 21.5087C10.4476 21.4568 10.4849 21.3891 10.4848 21.2703C10.4818 19.5862 10.4815 17.9024 10.4852 16.2182L10.4847 16.0087H8.83278L8.82787 16.0087ZM29.0825 16.4912C30.7567 16.4912 31.932 15.6713 31.932 14.1303V14.1081C31.932 12.7555 31.045 12.1896 29.4706 11.7794C28.129 11.4357 27.7964 11.225 27.7964 10.715V10.6929C27.7964 10.3159 28.1401 10.0166 28.7943 10.0166C29.4484 10.0166 30.1247 10.3048 30.8121 10.7816L31.6991 9.4955C30.9119 8.86355 29.9473 8.50878 28.8164 8.50878C27.231 8.50878 26.1001 9.44007 26.1001 10.8481V10.8703C26.1001 12.4113 27.109 12.8437 28.6723 13.2428C29.9695 13.5754 30.2356 13.7972 30.2356 14.2295V14.2517C30.2356 14.7063 29.8143 14.9834 29.1158 14.9834C28.2288 14.9834 27.497 14.6176 26.7985 14.0411L25.7896 15.2495C26.7209 16.081 27.9073 16.4912 29.0825 16.4912ZM57.9487 10.4046H60.4554V13.616C60.4554 14.4993 60.0633 14.8809 59.4316 14.8809C58.8979 14.8809 58.4731 14.5974 58.0375 14.1176L56.981 15.2953C57.5038 15.9168 58.288 16.4402 59.4751 16.4402C61.0871 16.4402 62.1762 15.5461 62.1762 13.6924V8.69827H60.4554H57.9487V10.4046ZM39.2628 10.292H36.9873V16.3383H35.2226V10.292H32.947V8.69827H39.2628V10.292ZM44.0015 16.4658C46.3601 16.4658 48.0744 14.6883 48.0744 12.5184V12.4966C48.0744 10.3266 46.3819 8.57101 44.0233 8.57101C41.6648 8.57101 39.9504 10.3484 39.9504 12.5184V12.5402C39.9504 14.7102 41.6429 16.4658 44.0015 16.4658ZM46.2456 12.5144V12.4929C46.2456 11.201 45.3135 10.1245 44.0002 10.1245C42.6869 10.1245 41.7761 11.1795 41.7761 12.4714V12.4929C41.7761 13.7848 42.7081 14.8613 44.0214 14.8613C45.3347 14.8613 46.2456 13.8063 46.2456 12.5144ZM54.134 16.3383H56.0964L54.2321 13.6097C55.2024 13.2496 55.8675 12.4746 55.8675 11.2413V11.2195C55.8675 9.64782 54.7882 8.69827 52.9893 8.69827H49.4566V16.3383H51.1795V13.8935H52.4987L54.134 16.3383ZM54.0943 11.2948V11.2738C54.0943 10.5826 53.6134 10.2264 52.8294 10.2264H51.1812V12.3317H52.8608C53.6448 12.3317 54.0943 11.9127 54.0943 11.2948ZM20.1685 17.2737C19.9009 17.2732 19.7055 17.4708 19.7055 17.7429C19.7056 18.0087 19.9108 18.2169 20.1723 18.2169C20.4164 18.2165 20.651 17.982 20.6482 17.7396C20.6456 17.4878 20.4261 17.2751 20.1685 17.2737ZM10.6232 2.02464C10.6242 1.76117 10.8296 1.55786 11.0949 1.55763C11.3607 1.55741 11.5645 1.76028 11.5655 2.02475C11.5661 2.27837 11.3448 2.50263 11.0958 2.49949C10.8427 2.49703 10.6224 2.27545 10.6232 2.02464ZM2.0146 18.2169C2.27468 18.219 2.48169 18.0104 2.48269 17.7448C2.4837 17.4725 2.28934 17.2739 2.0221 17.2737C1.76414 17.2737 1.53933 17.4904 1.54056 17.7377C1.54168 17.9853 1.76885 18.2146 2.0146 18.2169ZM11.0997 22.5165C11.3648 22.5183 11.5662 22.72 11.565 22.9826C11.5633 23.2442 11.3589 23.4412 11.0902 23.4395C10.8237 23.4382 10.62 23.235 10.6229 22.9732C10.6259 22.7129 10.8336 22.5145 11.0997 22.5165ZM1.54077 7.27087C1.54872 7.53064 1.75876 7.72656 2.02746 7.72421C2.29941 7.72174 2.48694 7.52851 2.48279 7.2544C2.47887 6.98163 2.28675 6.79725 2.01022 6.80139C1.74532 6.8052 1.53282 7.0177 1.54077 7.27087ZM20.1627 7.72496C19.891 7.72305 19.7028 7.52948 19.7055 7.25537C19.7082 6.98328 19.9009 6.79822 20.1774 6.80181C20.4426 6.8055 20.6536 7.0161 20.6473 7.27061C20.6411 7.52847 20.4296 7.72686 20.1627 7.72496ZM6.66686 12.8144C6.66686 13.9488 7.62575 14.8683 8.80859 14.8683L8.82993 14.8682L8.83291 14.8683H13.7475C13.7544 14.8683 13.761 14.8667 13.7669 14.8639C14.6283 14.8019 15.3072 14.1073 15.3072 13.2594C15.3072 12.3709 14.5614 11.6505 13.6414 11.6505L13.6371 11.6505C13.6181 10.324 12.4992 9.25431 11.1217 9.25431C10.071 9.25431 9.1707 9.87663 8.79424 10.7606C7.618 10.768 6.66686 11.6847 6.66686 12.8144Z" fill="white"/>
</svg>
