<svg width="56" height="39" viewBox="0 0 56 39" fill="none" xmlns="http://www.w3.org/2000/svg">
<g opacity="0.9">
<path d="M0 9.41206C0 5.9115 2.83776 3.07373 6.33832 3.07373H49.6061C53.1067 3.07373 55.9445 5.91149 55.9445 9.41205V31.6921C55.9445 35.1927 53.1067 38.0305 49.6061 38.0305H6.33831C2.83776 38.0305 0 35.1927 0 31.6922V9.41206Z" fill="url(#paint0_radial)"/>
<path d="M0 9.41206C0 5.9115 2.83776 3.07373 6.33832 3.07373H49.6061C53.1067 3.07373 55.9445 5.91149 55.9445 9.41205V31.6921C55.9445 35.1927 53.1067 38.0305 49.6061 38.0305H6.33831C2.83776 38.0305 0 35.1927 0 31.6922V9.41206Z" fill="white" fill-opacity="0.23"/>
<path d="M55.9444 32.5964C55.9444 35.5969 53.5121 38.0293 50.5116 38.0293L5.43285 38.0293C2.43237 38.0293 -2.85369e-07 35.5969 0 32.5964L2.29125e-06 8.50536C2.57661e-06 5.50488 2.43237 3.07251 5.43285 3.07251L50.5116 3.07251C53.5121 3.07251 55.9445 5.50488 55.9445 8.50536L55.9444 32.5964Z" fill="url(#paint1_linear)"/>
<path opacity="0.6" d="M56 28.0293C56 33.5522 51.5228 38.0293 46 38.0293L10.0003 38.0293C4.47743 38.0293 0.000286528 33.5521 0.000287053 28.0293L0.000288806 9.60293L56 9.60293L56 28.0293Z" fill="url(#paint2_linear)"/>
<path d="M-0.00010483 15.3648C4.22543 15.3648 10.0987 15.3648 13.0991 15.3648L41.833 15.3648C44.8335 15.3648 51.9744 15.3648 55.9443 15.3648L55.9443 28.029C55.9443 33.5519 51.4672 38.0291 45.9443 38.0291L9.99989 38.029C4.47704 38.029 -0.000110235 33.5519 -0.000109752 28.029L-0.00010483 15.3648Z" fill="url(#paint3_linear)"/>
<path d="M51.8203 9.35772L4.17871 9.35772L4.17871 3.25971C4.17871 1.45942 5.63813 -1.21523e-07 7.43842 0L48.5605 2.77582e-06C50.3608 2.89734e-06 51.8203 1.45942 51.8203 3.25971V9.35772Z" fill="url(#paint4_radial)"/>
<path d="M51.8203 9.35772L4.17871 9.35772L4.17871 3.25971C4.17871 1.45942 5.63813 -1.21523e-07 7.43842 0L48.5605 2.77582e-06C50.3608 2.89734e-06 51.8203 1.45942 51.8203 3.25971V9.35772Z" fill="#81B7FF"/>
<path d="M51.8203 11.8775L4.17871 11.8775L4.17871 8.03827C4.17871 6.23799 5.63813 4.77856 7.43842 4.77856L48.5605 4.77857C50.3608 4.77857 51.8203 6.23799 51.8203 8.03827V11.8775Z" fill="white"/>
<path d="M51.8203 11.8775L4.17871 11.8775L4.17871 8.03827C4.17871 6.23799 5.63813 4.77856 7.43842 4.77856L48.5605 4.77857C50.3608 4.77857 51.8203 6.23799 51.8203 8.03827V11.8775Z" fill="#C2DCFF"/>
<path d="M51.8203 15.3656L4.17871 15.3656L4.17871 12.8171C4.17871 11.0168 5.63813 9.55737 7.43842 9.55737L48.5605 9.55738C50.3608 9.55738 51.8203 11.0168 51.8203 12.8171V15.3656Z" fill="url(#paint5_radial)"/>
<path d="M51.8203 15.3656L4.17871 15.3656L4.17871 12.8171C4.17871 11.0168 5.63813 9.55737 7.43842 9.55737L48.5605 9.55738C50.3608 9.55738 51.8203 11.0168 51.8203 12.8171V15.3656Z" fill="white"/>
</g>
<defs>
<radialGradient id="paint0_radial" cx="0" cy="0" r="1" gradientUnits="userSpaceOnUse" gradientTransform="translate(27.9722 6.97386) rotate(90) scale(31.0566 72.295)">
<stop stop-color="#ABAFBB"/>
<stop offset="1" stop-color="#D3D6DF"/>
</radialGradient>
<linearGradient id="paint1_linear" x1="28" y1="38.0294" x2="27.9766" y2="3.07261" gradientUnits="userSpaceOnUse">
<stop stop-color="#0059D0"/>
<stop offset="1" stop-color="#2683FF"/>
</linearGradient>
<linearGradient id="paint2_linear" x1="28.0278" y1="38.0293" x2="28.0278" y2="9.60293" gradientUnits="userSpaceOnUse">
<stop stop-color="#0059D0"/>
<stop offset="1" stop-color="#61A4FF"/>
</linearGradient>
<linearGradient id="paint3_linear" x1="27.9962" y1="38.0291" x2="27.9962" y2="15.3648" gradientUnits="userSpaceOnUse">
<stop stop-color="#0059D0"/>
<stop offset="1" stop-color="#61A4FF"/>
</linearGradient>
<radialGradient id="paint4_radial" cx="0" cy="0" r="1" gradientUnits="userSpaceOnUse" gradientTransform="translate(27.9995 7.95367) rotate(-90) scale(11.1805 72.3664)">
<stop stop-color="#ABAFBB"/>
<stop offset="1" stop-color="#D3D6DF"/>
</radialGradient>
<radialGradient id="paint5_radial" cx="0" cy="0" r="1" gradientUnits="userSpaceOnUse" gradientTransform="translate(27.9995 14.4941) rotate(-90) scale(6.9396 72.3664)">
<stop stop-color="#ABAFBB"/>
<stop offset="1" stop-color="#D3D6DF"/>
</radialGradient>
</defs>
</svg>
